<?xml version="1.0" standalone="no"?>
<!DOCTYPE svg PUBLIC "-//W3C//DTD SVG 20010904//EN"
 "http://www.w3.org/TR/2001/REC-SVG-20010904/DTD/svg10.dtd">
<svg version="1.0" xmlns="http://www.w3.org/2000/svg"
 width="206.000000pt" height="206.000000pt" viewBox="0 0 206.000000 206.000000"
 preserveAspectRatio="xMidYMid meet">
<metadata>
Created by potrace 1.14, written by Peter Selinger 2001-2017
</metadata>
<g transform="translate(0.000000,206.000000) scale(0.100000,-0.100000)"
fill="#000000" stroke="none">
<path d="M1010 2033 c-157 -23 -352 -98 -478 -185 -24 -16 -45 -28 -46 -26 -1
1 -8 23 -15 48 -9 30 -28 59 -57 87 -69 67 -160 81 -250 39 -181 -84 -163
-348 27 -411 32 -11 47 -21 42 -28 -3 -7 -19 -31 -35 -54 -71 -105 -135 -274
-163 -433 -14 -83 -15 -320 -1 -380 3 -14 8 -38 12 -55 46 -238 255 -573 380
-611 237 -71 838 352 1285 906 157 195 275 395 314 533 11 39 15 83 13 134 -4
75 -4 76 -54 125 -55 56 -183 149 -259 190 -211 112 -470 156 -715 121z m390
-116 c124 -29 247 -80 355 -148 l49 -32 -74 -26 c-418 -148 -1079 -773 -1330
-1257 -22 -43 -48 -103 -56 -131 -9 -29 -17 -53 -19 -53 -1 0 -17 21 -33 48
-258 403 -208 937 120 1288 141 150 375 283 548 310 19 3 53 10 75 14 60 12
291 3 365 -13z m-1072 -25 c27 -18 52 -62 52 -92 0 -60 -58 -120 -115 -120
-39 0 -90 27 -105 55 -18 33 -16 98 4 126 36 52 110 66 164 31z m1595 -271
c27 -27 6 -134 -50 -251 -217 -455 -943 -1140 -1310 -1235 -76 -20 -99 -19
-123 5 -17 17 -19 28 -14 68 45 346 738 1109 1230 1354 134 67 236 89 267 59z"/>
<path d="M516 1483 c-63 -58 -182 -274 -200 -363 -2 -14 -10 -50 -16 -80 -6
-30 -11 -100 -11 -155 0 -95 3 -122 18 -190 4 -16 7 -33 7 -37 1 -5 3 -9 6
-10 6 -2 100 21 100 25 0 1 -6 35 -14 75 -16 83 -14 236 4 302 35 135 96 258
166 338 l47 53 -34 35 c-18 19 -35 34 -39 34 -3 0 -18 -12 -34 -27z"/>
</g>
</svg>
